<svg id="Group_1314" data-name="Group 1314" xmlns="http://www.w3.org/2000/svg" width="53.115" height="16.719" viewBox="0 0 53.115 16.719">
  <path id="Path_3798" data-name="Path 3798" d="M368.966,67.144a2.22,2.22,0,1,1-3.227,3.049c-.842-.891-2.392-3.978-1.5-4.82S368.124,66.253,368.966,67.144Z" transform="translate(-316.458 -64.45)" fill="#fff5cc"/>
  <path id="Path_3799" data-name="Path 3799" d="M310.734,117.148a2.219,2.219,0,0,1-4.144,1.591c-.439-1.144-.7-4.589.447-5.028S310.294,116,310.734,117.148Z" transform="translate(-269.99 -103.485)" fill="#fff5cc"/>
  <path id="Path_3800" data-name="Path 3800" d="M249.082,66.116a2.22,2.22,0,0,1-4.439,0c0-1.226.994-4.534,2.22-4.534S249.082,64.89,249.082,66.116Z" transform="translate(-220.45 -61.582)" fill="#fff5cc"/>
  <path id="Path_3801" data-name="Path 3801" d="M186.925,118.161a2.22,2.22,0,1,1-4.3-1.11c.307-1.187,2.1-4.141,3.283-3.834S187.232,116.974,186.925,118.161Z" transform="translate(-170.497 -103.108)" fill="#fff5cc"/>
  <path id="Path_3802" data-name="Path 3802" d="M125.07,68.057a2.219,2.219,0,0,1-3.995-1.935c.534-1.1,2.871-3.647,3.974-3.112S125.6,66.954,125.07,68.057Z" transform="translate(-120.852 -62.671)" fill="#fff5cc"/>
</svg>
