<svg height="511pt" viewBox="-48 0 511 511.99781" width="511pt" xmlns="http://www.w3.org/2000/svg"><g fill="#ffeba1"><path d="m292.023438 287.554688v112.601562c0 10.414062 8.441406 18.855469 18.855468 18.855469 10.414063 0 18.855469-8.441407 18.855469-18.855469v-138.835938zm0 0"/><path d="m208.257812 345.824219v38.410156c0 10.414063 8.441407 18.855469 18.855469 18.855469 10.414063 0 18.855469-8.441406 18.855469-18.855469v-64.644531zm0 0"/><path d="m68.269531 443.199219v42.4375c0 10.414062 8.441407 18.855469 18.855469 18.855469s18.855469-8.441407 18.855469-18.855469v-68.667969zm0 0"/></g><path d="m311.71875 273.855469v126.300781c0 7.152344-3.980469 13.371094-9.847656 16.570312 2.675781 1.457032 5.746094 2.285157 9.007812 2.285157 10.414063 0 18.855469-8.441407 18.855469-18.855469v-138.835938zm0 0" fill="#f7d36f"/><path d="m227.949219 332.121094v52.113281c0 7.152344-3.980469 13.371094-9.84375 16.566406 2.675781 1.460938 5.742187 2.289063 9.007812 2.289063 10.414063 0 18.855469-8.441406 18.855469-18.855469v-64.644531zm0 0" fill="#f7d36f"/><path d="m87.960938 429.5v56.136719c0 7.152343-3.980469 13.371093-9.84375 16.566406 2.675781 1.460937 5.742187 2.289063 9.007812 2.289063 10.414062 0 18.855469-8.441407 18.855469-18.855469v-68.667969zm0 0" fill="#f7d36f"/><path d="m38.625 59.078125c.175781-.054687 18.390625-5.734375 50.003906-4.910156 30.871094.804687 80.011719 8.25 138.816406 39.132812 58.808594 30.882813 92.828126 67.117188 111.011719 92.074219 18.625 25.558594 24.289063 43.777344 24.339844 43.953125.726563 2.480469 1.84375 4.730469 3.242187 6.738281l-336.511718 234.082032 1.703125-409.914063c2.449219.011719 4.941406-.347656 7.394531-1.15625zm0 0" fill="#ffdb57"/><path d="m353.425781 208.804688-323.75 225.207031-.148437 36.136719 336.511718-234.082032c-1.398437-2.007812-2.515624-4.257812-3.242187-6.738281-.035156-.113281-2.472656-7.957031-9.371094-20.523437zm0 0" fill="#f6c134"/><path d="m249.144531 52s0 0-.007812-.003906c0 0 0 0 .007812.003906-128.8125-67.648438-221.226562-38.511719-225.097656-37.234375-12.238281 4.023437-18.894531 17.207031-14.867187 29.445313 4.023437 12.238281 17.207031 18.894531 29.445312 14.867187.175781-.054687 18.390625-5.734375 50.003906-4.910156 30.871094.804687 80.011719 8.246093 138.816406 39.132812 58.808594 30.882813 92.828126 67.117188 111.011719 92.074219 18.625 25.558594 24.289063 43.777344 24.339844 43.953125 3.632813 12.359375 16.597656 19.4375 28.957031 15.804687 12.359375-3.628906 19.433594-16.59375 15.804688-28.953124-1.148438-3.914063-29.613282-96.535157-158.425782-164.1875.003907.003906.003907.003906.003907.003906-.003907-.003906-.003907-.003906-.003907-.003906-.003906 0-.003906 0-.003906 0zm0 0" fill="#ff9f34"/><path d="m389.320312 226.390625c-.058593-.195313-6.433593-20.703125-27.394531-49.472656-20.464843-28.089844-58.757812-68.871094-124.945312-103.632813-66.191407-34.761718-121.5-43.136718-156.246094-44.042968-35.582031-.929688-56.085937 5.460937-56.28125 5.527343-5.523437 1.816407-11.214844 1.695313-16.347656.019531-.285157 3.089844.039062 6.289063 1.074219 9.421876 4.023437 12.238281 17.207031 18.894531 29.445312 14.867187.175781-.054687 18.390625-5.734375 50.003906-4.910156 30.871094.804687 80.011719 8.25 138.816406 39.132812 58.808594 30.882813 92.828126 67.117188 111.011719 92.074219 18.625 25.558594 24.289063 43.777344 24.339844 43.957031 3.632813 12.359375 16.597656 19.4375 28.957031 15.804688 3.082032-.90625 5.839844-2.394531 8.183594-4.308594-4.949219-3.300781-8.808594-8.285156-10.617188-14.4375zm0 0" fill="#fb8f2d"/><path d="m190.894531 206.960938c0 21.855468-17.714843 39.574218-39.570312 39.574218s-39.574219-17.71875-39.574219-39.574218c0-21.855469 17.71875-39.570313 39.574219-39.570313s39.570312 17.714844 39.570312 39.570313zm0 0" fill="#f2433b"/><path d="m151.324219 219.507812c-17.109375 0-31.679688-10.859374-37.203125-26.058593-1.53125 4.214843-2.371094 8.765625-2.371094 13.511719 0 21.855468 17.71875 39.574218 39.574219 39.574218s39.570312-17.71875 39.570312-39.574218c0-4.746094-.835937-9.296876-2.367187-13.511719-5.523438 15.199219-20.09375 26.058593-37.203125 26.058593zm0 0" fill="#d83636"/><path d="m30.195312 309.207031c21.542969-.359375 38.902344-17.925781 38.902344-39.554687 0-21.519532-17.183594-39.015625-38.574218-39.546875zm0 0" fill="#f2433b"/><path d="m30.308594 282.175781-.113282 27.03125c21.546876-.359375 38.902344-17.925781 38.902344-39.554687 0-4.746094-.835937-9.292969-2.371094-13.511719-5.4375 14.964844-19.652343 25.710937-36.417968 26.035156zm0 0" fill="#d83636"/><path d="m260.867188 243.617188c-21.855469 0-39.570313 17.714843-39.570313 39.570312 0 16.492188 10.089844 30.625 24.433594 36.570312l54.671875-38.03125c-.769532-21.175781-18.171875-38.109374-39.535156-38.109374zm0 0" fill="#f2433b"/><path d="m287.949219 254.351562-63.550781 44.207032c4.039062 9.570312 11.730468 17.21875 21.332031 21.195312l54.671875-38.03125c-.390625-10.785156-5.105469-20.460937-12.453125-27.371094zm0 0" fill="#d83636"/><path d="m277.761719 195.589844c20.554687 0 37.445312-15.675782 39.382812-35.71875-12.613281-13.324219-28.816406-27.84375-49.371093-42.152344-17.019532 4.425781-29.582032 19.894531-29.582032 38.296875 0 21.855469 17.714844 39.574219 39.570313 39.574219zm0 0" fill="#f2433b"/><path d="m309.71875 152.3125c-7.195312 9.847656-18.824219 16.25-31.957031 16.25-17.105469 0-31.675781-10.855469-37.199219-26.050781-1.53125 4.214843-2.371094 8.761719-2.371094 13.503906 0 21.855469 17.714844 39.574219 39.570313 39.574219 20.554687 0 37.445312-15.675782 39.382812-35.71875-2.347656-2.484375-4.824219-5.003906-7.425781-7.558594zm0 0" fill="#d83636"/><path d="m117.6875 114.585938c21.855469 0 39.574219-17.71875 39.574219-39.574219 0-3.589844-.488281-7.066407-1.386719-10.371094-27.105469-7.503906-50.019531-10.023437-67.246094-10.472656-1.542968-.039063-3.046875-.0625-4.53125-.070313-3.785156 6.066406-5.980468 13.234375-5.980468 20.914063 0 21.855469 17.714843 39.574219 39.570312 39.574219zm0 0" fill="#f2433b"/><path d="m153.832031 64.09375c-6.167969 13.824219-20.027343 23.464844-36.144531 23.464844-17.105469 0-31.671875-10.851563-37.199219-26.042969-1.53125 4.210937-2.371093 8.753906-2.371093 13.5 0 21.851563 17.714843 39.570313 39.570312 39.570313s39.570312-17.714844 39.570312-39.570313c0-3.59375-.484374-7.066406-1.382812-10.375-.6875-.191406-1.359375-.363281-2.042969-.546875zm0 0" fill="#d83636"/><path d="m139.28125 343.898438c-21.851562 0-39.570312 17.71875-39.570312 39.574218 0 11.472656 4.886718 21.800782 12.6875 29.027344l63.460937-44.140625c-5.9375-14.355469-20.074219-24.460937-36.578125-24.460937zm0 0" fill="#f2433b"/><path d="m154.71875 347.03125-54.960938 38.230469c.480469 10.753906 5.25 20.390625 12.644532 27.238281l63.457031-44.140625c-3.964844-9.589844-11.59375-17.277344-21.140625-21.328125zm0 0" fill="#d83636"/><path d="m414.761719 214.066406c-1.183594-4.035156-30.515625-99.550781-162.042969-168.667968-.050781-.027344-.097656-.054688-.148438-.078126-131.582031-69.078124-226.878906-39-230.871093-37.6875-16.152344 5.3125-24.964844 22.777344-19.652344 38.925782 2.570313 7.824218 8.039063 14.175781 15.390625 17.886718 2.019531 1.019532 4.121094 1.800782 6.257812 2.351563l-.261718 63.421875c-.019532 4.148438 3.328125 7.523438 7.476562 7.539062h.03125c4.128906 0 7.488282-3.339843 7.503906-7.476562l.265626-63.425781c.726562-.179688 1.453124-.378907 2.171874-.617188.136719-.042969 11.515626-3.488281 31.609376-4.417969-1.242188 4.261719-1.882813 8.699219-1.882813 13.191407 0 25.960937 21.117187 47.082031 47.078125 47.082031 25.929688 0 47.03125-21.074219 47.078125-46.996094 18.15625 5.726563 38.019531 13.730469 59.191406 24.847656 10.199219 5.359376 19.621094 10.878907 28.339844 16.464844-13.1875 8.488282-21.617187 23.257813-21.617187 39.605469 0 25.960937 21.121093 47.078125 47.082031 47.078125 19.171875 0 35.722656-11.3125 43.050781-27.9375 4.433594 5.191406 8.277344 10.105469 11.578125 14.636719 17.628906 24.199219 23.175781 41.570312 23.203125 41.652343.21875.753907.476562 1.492188.75 2.21875l-50.613281 35.207032c-6.03125-19.113282-23.800781-32.761719-44.863281-32.761719-25.960938 0-47.078126 21.117187-47.078126 47.078125 0 14.761719 6.8125 28.308594 18.054688 37.082031l-53.359375 37.117188c-8.613281-12.984375-23.191406-20.996094-39.203125-20.996094-25.960938 0-47.078125 21.121094-47.078125 47.078125 0 9.980469 3.21875 19.675781 9.015625 27.664062l-37.148438 25.839844-26.980468 18.765625.582031-139.742187c22.035156-3.898438 38.929687-23.324219 38.929687-46.347656 0-12.367188-4.761718-24.046876-13.402343-32.890626-6.886719-7.042968-15.628907-11.660156-25.144531-13.394531l.265624-63.054687c.015626-4.148438-3.332031-7.519532-7.476562-7.539063-.011719 0-.019531 0-.03125 0-4.132812 0-7.488281 3.34375-7.507812 7.476563l-1.289063 309.871094c-.023437 5.945312 6.890625 9.605468 11.792969 6.195312l26.949218-18.746094v28.070313c0 14.535156 11.828126 26.359375 26.363282 26.359375 14.539062 0 26.363281-11.824219 26.363281-26.359375v-64.746094l87.261719-60.703125v24.042969c0 14.539062 11.828125 26.363281 26.363281 26.363281 14.539063 0 26.363281-11.824219 26.363281-26.363281v-60.71875l31.042969-21.59375v98.238281c0 14.535156 11.824219 26.363281 26.363281 26.363281 14.535156 0 26.363282-11.828125 26.363282-26.363281v-26.496094c0-4.144531-3.363282-7.503906-7.507813-7.503906-4.148437 0-7.507813 3.359375-7.507813 7.503906v26.496094c0 6.257812-5.089843 11.347656-11.347656 11.347656-6.257812 0-11.351562-5.089844-11.351562-11.347656v-108.679688l22.699218-15.789062v67.949219c0 4.089843 3.414063 7.507812 7.507813 7.507812 4.089844 0 7.507813-3.417969 7.507813-7.507812v-78.394531l27.667968-19.246094c1.671875 1.449218 3.503906 2.738281 5.492188 3.820312 7.152344 3.902344 15.648437 4.816406 23.464844 2.519532 7.902343-2.320313 14.425781-7.578126 18.375-14.808594 3.945312-7.230469 4.839843-15.5625 2.519531-23.460938zm-353.171875 55.585938c0 14.738281-10.164063 27.3125-23.851563 30.972656l.257813-61.910156c13.703125 3.675781 23.59375 16.058594 23.59375 30.9375zm88.164062-194.640625c0 17.683593-14.386718 32.066406-32.066406 32.066406s-32.0625-14.382813-32.0625-32.066406c0-4.628907 1.003906-9.167969 2.914062-13.335938 15.792969.417969 36.5 2.636719 60.917969 9.007813.195313 1.4375.296875 2.882812.296875 4.328125zm128.007813 113.070312c-17.679688 0-32.066407-14.382812-32.066407-32.066406 0-13.476563 8.40625-25.382813 20.796876-30.019531 17.363281 12.359375 31.417968 24.8125 42.695312 36.417968-2.96875 14.84375-15.941406 25.667969-31.425781 25.667969zm-16.894531 63.042969c15.996093 0 29.203124 11.554688 31.644531 26.945312l-47.445313 33.003907c-9.988281-5.648438-16.265625-16.199219-16.265625-27.886719.003907-17.679688 14.386719-32.0625 32.066407-32.0625zm-121.582032 100.28125c11.007813 0 21.011719 5.574219 26.851563 14.570312l-52.605469 36.59375c-4.097656-5.480468-6.3125-12.085937-6.3125-19.097656 0-17.683594 14.382812-32.066406 32.066406-32.066406zm-40.8125 134.230469c0 6.257812-5.089844 11.347656-11.347656 11.347656s-11.351562-5.089844-11.351562-11.347656v-38.511719l22.699218-15.789062zm139.988282-101.402344c0 6.257813-5.089844 11.347656-11.347657 11.347656-6.257812 0-11.351562-5.089843-11.351562-11.347656v-34.488281l22.699219-15.789063zm160.601562-153.902344c-2.917969 5.347657-8.808594 8.601563-14.894531 8.21875-6.550781-.414062-12.316407-5.039062-14.167969-11.332031-.054688-.1875-5.761719-19.207031-25.472656-46.265625-13.890625-19.0625-36.769532-44.523437-72.34375-69.308594-54.410156-38.085937-122.75-65.066406-189.855469-65.066406-29.390625 0-45.878906 5.3125-46.050781 5.371094-8.191406 2.691406-17.28125-1.90625-19.96875-10.082031-2.726563-8.289063 1.796875-17.246094 10.082031-19.972657 3.746094-1.234375 93.175781-29.441406 219.191406 36.714844.003907.003906.011719.007813.019531.011719.03125.015625.0625.03125.097657.050781 125.984375 66.191406 153.542969 155.839844 154.65625 159.625 1.191406 4.054687.730469 8.328125-1.292969 12.035156zm0 0"/><path d="m173.84375 240.355469c2.917969 2.945312 7.667969 2.96875 10.613281.050781 8.992188-8.910156 13.945313-20.789062 13.945313-33.445312 0-25.957032-21.121094-47.078126-47.078125-47.078126-25.960938 0-47.082031 21.121094-47.082031 47.078126 0 25.960937 21.121093 47.078124 47.082031 47.078124 4.144531 0 7.503906-3.359374 7.503906-7.503906 0-4.148437-3.359375-7.507812-7.503906-7.507812-17.683594 0-32.066407-14.386719-32.066407-32.066406 0-17.679688 14.382813-32.0625 32.066407-32.0625 17.679687 0 32.0625 14.382812 32.0625 32.0625 0 8.621093-3.371094 16.710937-9.496094 22.78125-2.945313 2.917968-2.96875 7.671874-.046875 10.613281zm0 0"/></svg>