<svg xmlns="http://www.w3.org/2000/svg" width="1141.678" height="248.724" viewBox="0 0 1141.678 248.724">
  <path id="Path_4327" data-name="Path 4327" d="M1134.136,158.4c-4.106.187-8.286.112-12.355.037-1.744-.037-3.487-.056-5.212-.075h-.019q-31.777-1.153-63.554-2.325c-.675-.019-1.387-.056-2.081-.094-4.293-.244-8.718-.487-11.68,1.744-4.987,3.75-8.793,2.756-13.292-.075-1.744-3.562-4.5-2.737-6.955-2.006a12.706,12.706,0,0,1-2.737.619c-2.85-.394-3.581.056-3.862.994a2.529,2.529,0,0,0-.038,1.237c-4.537-2.606-9.674-1.912-14.623-.881-1.087-2.587-3.618-2.831-6.093-3.037a20.407,20.407,0,0,1-2.512-.319l-.544-.112c-.263-.056-.525-.112-.787-.187-2.362-.562-4.818-1.162-7.274.431v-.019c-2.212,1.162-4.537.919-6.993.675a19.417,19.417,0,0,0-4.781-.075,16.744,16.744,0,0,1-1.556-.731c-1.444-.75-2.943-1.5-4.987-.975-1.387-2.381-3.525-1.95-5.605-1.5-.506.112-.994.206-1.481.281a14.056,14.056,0,0,1-2.231-1.162c-1.537-.937-3.131-1.912-5.531-1.556l-6.412-1.125a3.189,3.189,0,0,0-2.418-2.25l.094-.169-1.406.112h-.037l-.206.019v.019a3.948,3.948,0,0,0-3.562,2.475l-1.706,1.144a9.891,9.891,0,0,1-4.162-1.087c-2.062-.881-4.2-1.762-6.88-.562l-9.449,1.219c-1.631-.319-3.262-.656-4.912-.975-2.437-1.462-5.156-1.35-7.8-1.237a25.561,25.561,0,0,1-3.974-.019l-2.194-.281c-4.518-2.643-9.393-2.1-14.1-1.575-1.406.15-2.85.319-4.237.394a31.189,31.189,0,0,1-3.225-.281c-2.962-.337-6.018-.694-8.83,1.106l-3.056-.544a4.489,4.489,0,0,0-2.962-1.35l.225-1.05-4.031-.45-.037.937h0l-.037-.937-10.2,1.331c-2.812-.019-5.606-.019-8.418-.019-2.85-1.05-5.793-.806-8.624-.581a34.54,34.54,0,0,1-5.024.169h0l-11.923-1.2a2.649,2.649,0,0,0-1.144-.619c-.806-1.05-1.612-2.081-2.4-3.131l1.181-1.125,3.168-1.425c1.162-.112,2.4-.15,3.618-.187,5.081-.131,10.311-.281,11.736-6.374l.112-.487-1.294-2.831-.169-.094c-2.662-1.331-3.168-2.531-3.225-3.131-.131-1.35,1.462-3.337,2.587-4.706a1.289,1.289,0,0,0,.675-.581l7.893-.787,3.318.244h0l9.936.15,1.95.769.15-.094a3.086,3.086,0,0,1,1.406-.431l1.312-.281-.112.956,4.049.375,1.087-.319,2.418-.731,6.655,2.006,3.45-.506c1.612.262,3.243.525,4.912.787,2.775-.094,5.549-.169,8.324-.244l1.856-.056,3.562,1.05,3.225.731.075-.019c3.768-1.087,7.649-.712,11.4-.356a38.883,38.883,0,0,0,8.98.169q9.364-.2,18.729-.412l10.067,1.05h0l.169.019c1.856.187,3.693.412,5.549.619a124.885,124.885,0,0,0,14.848,1.162,50.841,50.841,0,0,0,8.549-.675c1.162.131,2.343.225,3.525.319a40.135,40.135,0,0,1,7.762,1.125,14.87,14.87,0,0,0,4.031.619,9.419,9.419,0,0,0,7.593-3.843l.262-.319-.038-.525c-.056-.919-.094-1.837-.131-2.775l-.038-.9-.544.037a35.594,35.594,0,0,1-8.924-.975c-4.331-.844-8.793-1.706-13.442-.15-7.274-2.512-15-2.362-22.478-2.212-1.387.019-2.756.056-4.143.075h-.225v.019a21.215,21.215,0,0,1-4.856-.3c-2.925-.412-5.962-.825-8.774,1.012A35.079,35.079,0,0,0,905,111.229c-6.055.806-13.1,1.256-19.422-1.65a2.147,2.147,0,0,1-.131-1.05c.225-1.35,1.969-2.718,3.056-3.543.919-.281,1.856-.544,2.793-.825,1.312.019,2.681.187,4.012.337a36.5,36.5,0,0,0,4.274.356,10.13,10.13,0,0,0,6.543-2.062l1.837-1.444-.881-.112c3.75-.637,7.349-.206,11.174.262a46.277,46.277,0,0,0,10.1.487c4.724-.469,9.3.056,14.136.619,5.287.6,10.761,1.237,16.46.469a62.492,62.492,0,0,1,12.13.037c2.85.187,5.812.375,8.624.319h.244l.169-.281a7.344,7.344,0,0,0,.637-1.631c.431-1.369.806-2.531,3.487-2.193,1.537.206,1.725.75,1.725.769a5.219,5.219,0,0,1-.394,1.556l-.431,1.2.656.394a8.1,8.1,0,0,0,3.037,1.087c9.561-.862,19.254-.244,28.609.337,3.168.206,6.337.394,9.486.544,1.912.094,3.843.225,5.774.356,3.15.225,6.337.45,9.505.45,7.049,0,13.911-1.144,19.816-5.962,2.418.187,4.968.337,7.63.337a51.43,51.43,0,0,0,16.46-2.437l-.112-1.856-24.278-.225c-4.143-.169-8.268-.3-12.411-.431-9.3-.3-18.935-.6-28.365-1.256-3.618-.244-7.312-.394-10.874-.544-9.655-.394-19.647-.806-29.19-3.243-2.943-.056-4.687-1.031-5.174-2.925l-.169-.656-.412.094c-.844.206-1.687.412-2.568.6a12.631,12.631,0,0,0-8.361.694c-2.044-2.493-5.587-2.812-8.08-2.268-3.281.712-6.374.206-9.355-.281a42.471,42.471,0,0,0-5.4-.637v.9l-.225-.806c-7.424,4.724-12.823,4.424-17.51-.937l-.206-.225-6.374,2.325-.187.131c-.225.244-.45.469-.694.712q-4.865-1.772-9.749-3.543l-.169-.056-1.631,1.087L894.6,82.189l-2.006,1.144a32.261,32.261,0,0,1-14.473-1.781c-.262-.844-.544-1.669-.806-2.512.131-.094.262-.169.375-.262,1.406-.919,2.868-1.856,3.168-3.787l.169-1.106-.675-.056a184.87,184.87,0,0,0-35.864.262l-.206.019-.15.225c-.694,1.087-2.081,1.106-3.431,1.125a14.067,14.067,0,0,0-1.537.075h0l-.187.019h-.094c-.281.037-.581.075-.881.112v-.056l-.881.169-.319.037v.019l-4.724.9-1.35-1.312-3.562-.825-6.918.206c-2.531-.712-5.118-.281-7.63.131-3.225.544-6.28,1.05-9.224-.637l-.112-.037A65.678,65.678,0,0,1,789.8,69.61c-1.031-.45-2.062-.9-3.15-1.35a19.863,19.863,0,0,0-3.506-.375c-2.4-.131-4.874-.244-6.43-2.1l-.169-.206-.206.037a2.262,2.262,0,0,1-1.369-.225c-3.881-.956-8.4-.712-10.742.544-5.737,3.112-8.868.769-12.486-1.95l-.206-.15-8.53-.937q-12.851-.478-25.665-.975l-5.062-.281a8.363,8.363,0,0,1-5.137-.281l-4.931-.206-3.637-.337a34,34,0,0,1-11.923-.375l-.131-.019-.131.075a7.52,7.52,0,0,1-1.256.581l-1.125-.131.037-.131-.9.037-.356-.037-.019.037a93.444,93.444,0,0,1-16.4-1.35c-6.674-.956-13.573-1.931-20.6-1.05a26.865,26.865,0,0,1-5.493-.075c-.862-.075-1.725-.15-2.568-.169l-4.312-.169c-9.786-.375-19.891-.769-29.846.169l-8.005-1.65-4.181.487-.112-.15-.937.281.131,1.856.169-.019c-2.812,1.106-5.324,1.893-8.661-.187-4.368-2.737-9.8-2.643-15.073-2.55-.975.019-1.95.037-2.925.037-4.274-.019-8.324-.037-8.643-3.9l-.056-.562-.656-.375c-.412-.244-.806-.469-1.219-.712l-.15-.094-.15.056a8.235,8.235,0,0,1-5.193.45L541,50.862l-.075.019c-5.812,2.306-11.417.937-16.817-.375-1.856-.45-3.787-.919-5.662-1.219-2.906-.469-5.812-.994-8.718-1.519-7.874-1.425-16.029-2.887-24.334-3.206h-.112l-4.162-.581c-.037-.187-.075-.375-.094-.562l-.094-.806-.487.056c-2.775.319-4.8-.675-6.937-1.744a20.317,20.317,0,0,0-3.562-1.5l-2.437-.394-4.124.994-.056.694a.93.93,0,0,1-.056.244l-2.925-.544h-.094l-30.39-3.956c-.9-.056-1.819-.112-2.737-.15l-11.23-.356-2.981-.169c-1.237-.225-2.493-.45-3.731-.675l-1.444-.244-3.243-.112q-23.509-.619-47.019-1.162c-6.88-.169-13.986-.337-18.429-5.418h0c-.262-.356-.525-.731-.787-1.087a6.019,6.019,0,0,0-.787-3.056c-.937-1.481-2.662-2.006-5.4-1.631l-8.005-1.069-.431,2.1c-.187.937-.394,1.875-.6,2.812-3.412.506-3.543-.712-3.693-2.118a5.74,5.74,0,0,0-.694-2.568l-.375.675-.056-.919a30.549,30.549,0,0,1-8.961-.281c-3.375-.45-6.843-.881-10.311-.037l.431-.769-4.349-.956c-1.987,0-3.993.019-5.98.056-4.837.056-9.842.112-14.829-.169-2.643-.15-5.924-.319-7.593-2.456l-.15-.187h-.187c-.094,0-.187.019-.281.019l.337-3.243-.469-.244c-5.681-2.868-12.092-3.187-18.316-3.487-2.025-.094-4.124-.206-6.149-.394a1.189,1.189,0,0,0-.694-.412c-3.187-3.431-7.405-3.225-11.511-3a29.051,29.051,0,0,1-5.718-.094c0-.131-.019-.262-.019-.394h-.562l.037-.937L212.581,3.112c-2.231.187-4.443.375-6.655.581l-3.262-.975L200.77,3.3l-6.805-.825-6.318-.056-.112.112c-.975.844-2.193.731-3.487.619q-.619-.056-1.237-.056V3.075h-2.362l-3.3-1.125-.112.919.019-.994c-1.687.075-3.375.131-5.081.187l-1.5-.731-3.562.975c-3.375-.225-6.843-.244-10.18-.244-6.73,0-13.667-.019-20.341-1.856L132.923,0,108.776,3.281v.056l-2.306-.169V3.15H106.3l-.019.037-5.83.844-.169.075a71.46,71.46,0,0,1-9.505,5.905,24.806,24.806,0,0,1-4.049,1.219c-3.093.731-6.262,1.519-7.78,4.556H78.93l-.056.112c-.037.075-.075.131-.112.206l-.75,1.744-3.093,1.106c-4.181.019-5.418,2.212-6.6,4.368a13.359,13.359,0,0,1-1.2,1.875c-5.793,2.193-7.162,6.6-8.249,10.574l-.056.037-.075.487-.487,1.762.206-.112-.787,4.631a19.221,19.221,0,0,1-2.381,4.162c-1.481,2.156-3.018,4.406-3.112,7.105a7.859,7.859,0,0,0,1.012,4.031c1.725,3.131,1.5,6.3-.731,10.217A6.074,6.074,0,0,0,47.7,71.372l-7.8,3.262c-1.931-.187-3.187.319-3.937,1.575-1.968,1.481-2.062,3.581-1.987,5.268C27.9,84.4,28.067,89.013,28.217,93.1A15.786,15.786,0,0,1,27.9,98.05a3.843,3.843,0,0,0-1.856,2.643,3.905,3.905,0,0,0,.244,1.95,7.384,7.384,0,0,0,.431,5.324l-.056.262c-.656,3.337-1.331,6.768-.206,10.349l.019.075h0c.75,1.837.431,3.75.075,5.962-.469,2.906-1.05,6.468,1.519,9.617-.037.656-.075,1.312-.094,1.987l-1.256,2.118-2.381,1.425c-1.875.037-3.018.787-3.468,2.362l-1.012,1.95c-8.1,5.624-11.848,10.517-12.167,15.86-.281,4.762,2.081,9.692,7.668,15.954.075.637.15,1.294.206,1.931l.094.787c-1.294,2.437-1.275,5.062-1.237,7.405.037,2.718.075,5.062-1.744,7.293-4.912,1.331-7.593,4.312-8.436,9.355l-.694.937c-1.369.206-3.075.769-3.318,2.943a4.862,4.862,0,0,0-.187,2.306c.3,1.837,1.612,3.037,3,4.293,1.087.994,2.306,2.1,2.456,3.206l.037.225.094.187c.787,1.519,1.594,3.056,2.381,4.574l1.819,3.525.094.15a1.339,1.339,0,0,1,.262.544l.131.544.356.019c1.669.112,3.206,1.575,4.124,3.881l.15.356,9.636,2.118a3.453,3.453,0,0,0,2.943,1.425,7,7,0,0,0,1.575-.206l10.986,1.875,1.912.319c.862.3,1.706.6,2.55.9h.019a5.577,5.577,0,0,0,2.456.6,5.118,5.118,0,0,0,1.819-.337l5.193.675a9.975,9.975,0,0,0,5.437,1.331c.881,0,1.781-.056,2.718-.131a10.211,10.211,0,0,0,4.331.994,9.962,9.962,0,0,0,2.568-.337l.112-.037,14.848,1.219-.075.094,1.2-.019.525.038.037-.056,3.881-.038.037.038h.15l4.781-.056,1.05-.019h.037c1.106.206,2.193.45,3.3.694a37.349,37.349,0,0,0,8.305,1.237,15.774,15.774,0,0,0,5.812-1.05h.037l3.525.112.037-.019c.637.094,1.275.206,1.912.319a28.544,28.544,0,0,0,4.556.562l12.73.262c15.992.337,32.508.675,48.762.675h.169c8.661,0,17.454-.394,25.947-.787,3.937-.169,7.874-.356,11.83-.487h0l4.856.019.019-.019a40.936,40.936,0,0,1,8.83.094c1.856.15,3.712.319,5.568.319a17.979,17.979,0,0,0,9.411-2.231l3.056.881a4.54,4.54,0,0,0,2.868,1.087,4.7,4.7,0,0,0,3.056-1.256l1.631-.881c2.512.056,5.043,0,7.5-.037a88.633,88.633,0,0,1,13.873.431c.862.112,1.762.3,2.7.506,2.962.637,6.3,1.331,9.449-.169a40.628,40.628,0,0,0,4.537.244,42.93,42.93,0,0,0,7.574-.675h.019L321,239.556a30.3,30.3,0,0,0,3.9,1.2,16.261,16.261,0,0,1,5.962,2.381l.225-.862h0v.937l6.805.131.169-.3c.806-1.481,2.737-1.781,4.612-2.081l.637-.112c1.069.131,2.118.262,3.187.412l3.206,1.294h.094a85.966,85.966,0,0,1,20.472.075l3.562.206h5.4l.131-.619c.038-.15.038-.281.075-.431l2.7.394c1.425.206,2.85.412,4.274.637l.544-.037.019-.206,3.693-1.012a6.51,6.51,0,0,0,2.062.337,7.005,7.005,0,0,0,3.375-.9l3.318-.056,3.262.225h0l2.4.169v.019l1.087.056h.112l.169.019h0c6.693.337,13.367.656,20.06.994h.056l.038-.019a23.6,23.6,0,0,1,10.049-.15l.075.019,3.937-.937,2.625.319,3.749.544,5.231-.206a8.154,8.154,0,0,1,4.106.262,13.358,13.358,0,0,0,2.962.469,4.875,4.875,0,0,0,3.112-1.05l1.575-.394,3.525.806c2.343-.169,4.668-.319,7.012-.487v-.056l5.943.937c-.019.112-.019.225-.037.337l-.15,1.106.675.038c6.768.412,13.536.806,20.4,1.2,3.018-.769,6.187-.487,9.243-.206,1.594.15,3.225.3,4.856.3a18.4,18.4,0,0,0,4.724-.562l3.243-.094.037.019a52.574,52.574,0,0,0,10.667,1.106c1.425,0,2.85-.075,4.274-.187v.019l.263-.038a.366.366,0,0,0,.15-.019l.731-.075-.019-.075,2.493-.412h0a26.594,26.594,0,0,0,4.856.45,26.148,26.148,0,0,0,5.643-.619v-.019l6.749-.937a9.164,9.164,0,0,0,5.174,1.706,7.715,7.715,0,0,0,1.725-.187h4.724l6.824.206.075.75,3.525-.131,3.375-1.8c.731.319,1.481.656,2.212.975l-.037.131.787.206.375.169.019-.075a33.514,33.514,0,0,0,11.811.825l3.693-.038c1.519.15,3.056.319,4.574.487v.019l1.837.262v.038h.3l.806.112v-.094l19.235.469h0a18.973,18.973,0,0,1,2.606.375,17.216,17.216,0,0,0,3.187.394,4.433,4.433,0,0,0,3.187-1.106c3.525-3.3,7.462-2.587,11.624-1.837.525.094,1.069.187,1.612.281,1.65.281,3.375.394,5.024.525l2.156.169.131.056a19,19,0,0,1,2.062.375,13.3,13.3,0,0,0,2.962.431,5.138,5.138,0,0,0,3.318-1.144c.562-.075,1.106-.15,1.669-.244,1.912.637,3.487.019,5.006-.562a7.146,7.146,0,0,1,3.825-.731,18.263,18.263,0,0,0,11.642,3.768,32.992,32.992,0,0,0,6.73-.75h0a12.813,12.813,0,0,1,3.243.337,16.639,16.639,0,0,0,2.906.356,6.413,6.413,0,0,0,2.325-.412c.956.169,1.931.337,2.906.506l.506.094H709c5.1-.262,10.18-.506,15.279-.769h.056a8.229,8.229,0,0,0,1.35.131,8.045,8.045,0,0,0,3.618-.881,9.206,9.206,0,0,0,1.219.112,2.945,2.945,0,0,0,2.906-1.65l.188-.075a11.716,11.716,0,0,1,3.787.431,15.284,15.284,0,0,0,3.3.506,5.445,5.445,0,0,0,3.637-1.331,1.009,1.009,0,0,0,.881-.356l1.575.188.112-.075c1.65-.994,3.862-1.05,6.018-1.106,3.187-.094,6.449-.206,8.361-3.206a2.613,2.613,0,0,0,1.106-.281l2.25.9-.019.169,2.887.337.019-.056,4.949.187.562-.187c.356-.131.712-.244,1.012-.356a22.954,22.954,0,0,1,12.111.394l6.655-.15a71.849,71.849,0,0,1,22.272,1.35l.019-.3v.3l8.436.956c.881-.075,1.762-.206,2.625-.337a18.64,18.64,0,0,1,7.349-.056l.094.019.094-.038c2.662-.9,4.781-1.144,6.524.581l.112.112,6.9.544.112.019.112-.075c3.093-2.062,6.749-2.325,11.473-.862l.225.075.188-.206a18.6,18.6,0,0,1,1.631-1.537c1.65-1.444,3.075-2.7,2.868-4.481-.15-1.369-1.144-2.475-5.343-3.375a1.866,1.866,0,0,1-.056-.881c.281-1.181,2.175-2.006,3.712-2.681,1.725-.75,3.356-1.481,4.125-2.925l9.318-1.762.112-.037c2.362-1.219,4.8-2.493,6.205-4.649l.244-.375-.6-4.462-.244-.206a1.876,1.876,0,0,1-.75-1.031,3.741,3.741,0,0,1,.3-1.5c5.212-.469,7.574-1.631,8.174-4.012a6.782,6.782,0,0,0-.975-4.856l-.187-.337-.281.037a10.249,10.249,0,0,1-3.618-.412c-2.194-.506-4.462-1.012-6.58.9-3.187-.525-5.905,1.256-7.893,2.606-1.237.825-2.287,1.537-2.85,1.256-3.206-1.687-6.712-1.8-10.124-1.912-3.037-.094-5.905-.206-8.493-1.35.356-1.294,1.687-2.418,3-3.506a10.643,10.643,0,0,0,3.243-3.637l27.671-.9.056.037.15-.037a16.4,16.4,0,0,1,2.812-.394c2.062-.169,4.012-.337,4.968-1.8,1.744-2.662,3.731-3.431,6.468-2.437,1.162.412,1.575.956,1.706,1.331a4.333,4.333,0,0,1-.056,1.95,9.3,9.3,0,0,0-.169,2.193l.037.619.356.169c1.162.544,2.193-.3,3.112-1.05,1.312-1.069,2.25-1.856,3.525.469a9.225,9.225,0,0,0,.787,1.275,4.677,4.677,0,0,0,3.693,2.175c1.725,0,3.431-1.256,4.593-3.675,1.144-2.4,3.243-3,5.68-3.712q.984-.281,2.025-.619c3.45-1.219,6.768-.694,9.974-.187a27.9,27.9,0,0,0,6.749.487l.281-.019.15-.375c.356-.844.712-1.294,1.106-1.387.487-.094,1.069.337,1.762,1.294.188.412.375.844.562,1.256l.525,1.181.394-.262c1.95-1.294,3.337-1.612,4.106-.919a3.9,3.9,0,0,1,.9,2.437l.094.712,7.593.15.112-.075c1.5-1.012,3-2.043,4.5-3.056l.225-.15.094-.356a5.124,5.124,0,0,0,.094-.525,13.613,13.613,0,0,0,4.762-1.481,10.915,10.915,0,0,1,5.7-1.425,11.944,11.944,0,0,0,5.062,1.444,6.691,6.691,0,0,0,3.824-1.237l6-.131c1.781.075,3.562.169,5.362.281,3.243.187,6.58.375,9.88.375,1.012,0,2.006-.019,3.018-.056l.994-.037c3.6-.112,8.043-.262,8.624-4.856l.394-.431.019-.262,2.831-1.069.112-.019,6.749-1.294,1.444.525a2.092,2.092,0,0,0,1.012.375l.431.15-.075-.169a1.5,1.5,0,0,0,.281-.056c.6.056,1.125.094,1.575.094,1.668,0,2.568-.412,3.15-1.35a6.823,6.823,0,0,0,.675-3.543c-.075-5.587-4.125-7.893-8.418-10.33-.487-.281-.975-.562-1.481-.844a2.391,2.391,0,0,1,.019-.375,21.663,21.663,0,0,1,14.7.487c3.937,1.444,7.5,2.587,11.38,2.587a20.589,20.589,0,0,0,6.3-1.012c.45-.15.937-.3,1.425-.469,2.737-.937,6.13-2.081,9.542-1.369,17.9,3.712,34.889,2.193,50.487-4.537.881-.112,1.762-.262,2.643-.394,4.537-.712,8.811-1.387,13.33.525a4.81,4.81,0,0,0,1.931.394,10.856,10.856,0,0,0,5.043-1.8l2.006-1.087-1.087-1.069A8.1,8.1,0,0,0,1134.136,158.4ZM764.978,204.667Zm21.747,4.931ZM534.945,68.372Zm40.776,63.235Zm-137.232-26ZM370.679,207.76Zm-143.7,24.128ZM80.973,192.931Zm742.853-44.282ZM630.333,246.943h0v0Z" transform="translate(0.024)" fill="#a80e0e"/>
</svg>
